<?xml version="1.0" encoding="utf-8"?>
<!-- Generator: Adobe Illustrator 24.0.1, SVG Export Plug-In . SVG Version: 6.00 Build 0)  -->
<svg version="1.1" id="Calque_1" xmlns="http://www.w3.org/2000/svg" xmlns:xlink="http://www.w3.org/1999/xlink" x="0px" y="0px"
	 viewBox="0 0 640 217" style="enable-background:new 0 0 640 217;" xml:space="preserve">
<style type="text/css">
	.st0{fill:#FFFFFF;}
	.st1{fill:#B78F1D;}
	.st2{opacity:0.8;}
</style>
<g>
	<g>
		<g>
			<path class="st0" d="M241.2,189.2l8.1,17.3h-1.9l-2.7-5.7h-7.5l-2.7,5.7h-1.9l8.2-17.3H241.2z M241,192.9l-3,6.3h5.9L241,192.9z"
				/>
			<path class="st0" d="M251.7,193.7h1.6v2.3c0.7-0.9,1.4-1.5,2.2-2c0.8-0.4,1.7-0.7,2.6-0.7c1,0,1.8,0.2,2.6,0.7
				c0.7,0.5,1.3,1.1,1.6,2c0.4,0.8,0.5,2.1,0.5,3.9v6.6h-1.6v-6.1c0-1.5-0.1-2.5-0.2-3c-0.2-0.8-0.6-1.5-1.1-1.9
				c-0.5-0.4-1.3-0.6-2.1-0.6c-1,0-1.9,0.3-2.7,1c-0.8,0.7-1.3,1.5-1.6,2.5c-0.2,0.6-0.2,1.8-0.2,3.5v4.7h-1.6V193.7z"/>
			<path class="st0" d="M265.1,193.7h1.7l4.4,9.9l4.3-9.9h1.8l-7.6,17.5h-1.7l2.5-5.7L265.1,193.7z"/>
			<path class="st0" d="M280.8,188.9h1.6v4.8h2.6v1.4h-2.6v11.4h-1.6v-11.4h-2.3v-1.4h2.3V188.9z"/>
			<path class="st0" d="M288.2,188.4c0.4,0,0.7,0.1,1,0.4c0.3,0.3,0.4,0.6,0.4,1c0,0.4-0.1,0.7-0.4,1c-0.3,0.3-0.6,0.4-1,0.4
				c-0.4,0-0.7-0.1-0.9-0.4c-0.3-0.3-0.4-0.6-0.4-1c0-0.4,0.1-0.7,0.4-1C287.5,188.5,287.8,188.4,288.2,188.4z M287.3,193.7h1.6
				v12.8h-1.6V193.7z"/>
			<path class="st0" d="M292.4,193.7h1.6v2.2c0.6-0.8,1.2-1.4,1.8-1.8c0.8-0.5,1.7-0.8,2.6-0.8c0.6,0,1.2,0.1,1.8,0.4
				c0.6,0.2,1,0.6,1.4,1c0.4,0.4,0.7,1,0.9,1.7c0.5-1,1.2-1.8,2.1-2.3c0.8-0.5,1.7-0.8,2.7-0.8c0.9,0,1.7,0.2,2.3,0.7
				c0.7,0.4,1.2,1.1,1.5,1.9c0.3,0.8,0.5,2,0.5,3.6v7h-1.7v-7c0-1.4-0.1-2.3-0.3-2.8c-0.2-0.5-0.5-0.9-1-1.2c-0.5-0.3-1-0.5-1.7-0.5
				c-0.8,0-1.5,0.2-2.2,0.7s-1.1,1.1-1.4,1.9c-0.3,0.8-0.5,2.1-0.5,3.9v5h-1.6v-6.6c0-1.5-0.1-2.6-0.3-3.2c-0.2-0.6-0.5-1-1-1.3
				c-0.5-0.3-1-0.5-1.7-0.5c-0.8,0-1.5,0.2-2.1,0.7c-0.7,0.5-1.2,1.1-1.5,1.9c-0.3,0.8-0.5,2-0.5,3.6v5.4h-1.6V193.7z"/>
			<path class="st0" d="M325.8,202.3l1.4,0.7c-0.5,0.9-1,1.6-1.6,2.2c-0.6,0.5-1.3,1-2,1.3c-0.7,0.3-1.6,0.4-2.5,0.4
				c-2.1,0-3.7-0.7-4.9-2.1c-1.2-1.4-1.8-2.9-1.8-4.6c0-1.6,0.5-3.1,1.5-4.3c1.3-1.6,3-2.4,5.1-2.4c2.2,0,3.9,0.8,5.2,2.5
				c0.9,1.2,1.4,2.6,1.4,4.4h-11.5c0,1.5,0.5,2.7,1.4,3.7c0.9,1,2.1,1.4,3.4,1.4c0.7,0,1.3-0.1,1.9-0.3c0.6-0.2,1.1-0.5,1.6-0.9
				C324.9,203.7,325.3,203.1,325.8,202.3z M325.8,198.8c-0.2-0.9-0.5-1.6-1-2.1c-0.4-0.5-1-1-1.7-1.3c-0.7-0.3-1.4-0.5-2.2-0.5
				c-1.3,0-2.3,0.4-3.2,1.2c-0.7,0.6-1.2,1.5-1.5,2.7H325.8z"/>
			<path class="st0" d="M332.4,203.3l1.6,0.8l-2.4,4.5l-1.2-0.5L332.4,203.3z"/>
			<path class="st0" d="M351.5,189.2l8.1,17.3h-1.9l-2.7-5.7h-7.5l-2.7,5.7h-1.9l8.2-17.3H351.5z M351.2,192.9l-3,6.3h5.9
				L351.2,192.9z"/>
			<path class="st0" d="M362,193.7h1.6v2.3c0.7-0.9,1.4-1.5,2.2-2s1.7-0.7,2.6-0.7c1,0,1.8,0.2,2.6,0.7c0.7,0.5,1.3,1.1,1.6,2
				c0.4,0.8,0.5,2.1,0.5,3.9v6.6h-1.6v-6.1c0-1.5-0.1-2.5-0.2-3c-0.2-0.8-0.6-1.5-1.1-1.9c-0.5-0.4-1.3-0.6-2.1-0.6
				c-1,0-1.9,0.3-2.7,1c-0.8,0.7-1.3,1.5-1.6,2.5c-0.2,0.6-0.2,1.8-0.2,3.5v4.7H362V193.7z"/>
			<path class="st0" d="M375.3,193.7h1.7l4.4,9.9l4.3-9.9h1.8l-7.6,17.5h-1.7l2.5-5.7L375.3,193.7z"/>
			<path class="st0" d="M387.9,193.7h1.7l3.9,9.3l4.1-9.3h0.3l4.1,9.3l4-9.3h1.7l-5.6,12.8h-0.3l-4.1-9.2l-4.1,9.2h-0.3L387.9,193.7
				z"/>
			<path class="st0" d="M409.7,188.7h1.6v7.2c0.7-0.9,1.4-1.5,2.2-2s1.7-0.7,2.6-0.7c1,0,1.8,0.2,2.6,0.7c0.7,0.5,1.3,1.1,1.6,2
				c0.4,0.8,0.5,2.1,0.5,3.9v6.6h-1.6v-6.1c0-1.5-0.1-2.5-0.2-3c-0.2-0.8-0.6-1.5-1.1-1.9c-0.5-0.4-1.2-0.6-2.1-0.6
				c-1,0-1.9,0.3-2.7,1c-0.8,0.7-1.3,1.5-1.6,2.5c-0.2,0.6-0.2,1.8-0.2,3.5v4.7h-1.6V188.7z"/>
			<path class="st0" d="M435.2,202.3l1.4,0.7c-0.5,0.9-1,1.6-1.6,2.2c-0.6,0.5-1.3,1-2,1.3c-0.7,0.3-1.6,0.4-2.5,0.4
				c-2.1,0-3.7-0.7-4.9-2.1c-1.2-1.4-1.8-2.9-1.8-4.6c0-1.6,0.5-3.1,1.5-4.3c1.3-1.6,3-2.4,5.1-2.4c2.2,0,3.9,0.8,5.2,2.5
				c0.9,1.2,1.4,2.6,1.4,4.4h-11.5c0,1.5,0.5,2.7,1.4,3.7c0.9,1,2.1,1.4,3.4,1.4c0.7,0,1.3-0.1,1.9-0.3c0.6-0.2,1.1-0.5,1.6-0.9
				C434.2,203.7,434.7,203.1,435.2,202.3z M435.2,198.8c-0.2-0.9-0.5-1.6-1-2.1c-0.4-0.5-1-1-1.7-1.3c-0.7-0.3-1.4-0.5-2.2-0.5
				c-1.3,0-2.3,0.4-3.2,1.2c-0.7,0.6-1.2,1.5-1.5,2.7H435.2z"/>
			<path class="st0" d="M439.4,193.7h1.7v1.9c0.5-0.7,1-1.3,1.6-1.7c0.6-0.4,1.1-0.5,1.7-0.5c0.5,0,0.9,0.1,1.5,0.4l-0.9,1.4
				c-0.3-0.2-0.6-0.2-0.9-0.2c-0.5,0-1.1,0.2-1.6,0.7c-0.5,0.5-0.9,1.2-1.2,2.1c-0.2,0.7-0.3,2.2-0.3,4.4v4.3h-1.7V193.7z"/>
			<path class="st0" d="M458.1,202.3l1.4,0.7c-0.5,0.9-1,1.6-1.6,2.2c-0.6,0.5-1.3,1-2,1.3c-0.7,0.3-1.6,0.4-2.5,0.4
				c-2.1,0-3.7-0.7-4.9-2.1c-1.2-1.4-1.8-2.9-1.8-4.6c0-1.6,0.5-3.1,1.5-4.3c1.3-1.6,3-2.4,5.1-2.4c2.2,0,3.9,0.8,5.2,2.5
				c0.9,1.2,1.4,2.6,1.4,4.4h-11.5c0,1.5,0.5,2.7,1.4,3.7c0.9,1,2.1,1.4,3.4,1.4c0.7,0,1.3-0.1,1.9-0.3c0.6-0.2,1.1-0.5,1.6-0.9
				C457.2,203.7,457.6,203.1,458.1,202.3z M458.1,198.8c-0.2-0.9-0.5-1.6-1-2.1c-0.4-0.5-1-1-1.7-1.3c-0.7-0.3-1.4-0.5-2.2-0.5
				c-1.3,0-2.3,0.4-3.2,1.2c-0.7,0.6-1.2,1.5-1.5,2.7H458.1z"/>
			<path class="st0" d="M464.7,203.3l1.6,0.8l-2.4,4.5l-1.2-0.5L464.7,203.3z"/>
			<path class="st0" d="M474.9,190.9v-1.7h9.5v1.7h-3.9v15.6h-1.8v-15.6H474.9z"/>
			<path class="st0" d="M486.7,188.7h1.6v7.2c0.7-0.9,1.4-1.5,2.2-2s1.7-0.7,2.6-0.7c1,0,1.8,0.2,2.6,0.7c0.7,0.5,1.3,1.1,1.6,2
				c0.4,0.8,0.5,2.1,0.5,3.9v6.6h-1.6v-6.1c0-1.5-0.1-2.5-0.2-3c-0.2-0.8-0.6-1.5-1.1-1.9c-0.5-0.4-1.2-0.6-2.1-0.6
				c-1,0-1.9,0.3-2.7,1s-1.3,1.5-1.6,2.5c-0.2,0.6-0.2,1.8-0.2,3.5v4.7h-1.6V188.7z"/>
			<path class="st0" d="M501.9,188.4c0.4,0,0.7,0.1,1,0.4c0.3,0.3,0.4,0.6,0.4,1c0,0.4-0.1,0.7-0.4,1c-0.3,0.3-0.6,0.4-1,0.4
				c-0.4,0-0.7-0.1-0.9-0.4c-0.3-0.3-0.4-0.6-0.4-1c0-0.4,0.1-0.7,0.4-1C501.3,188.5,501.6,188.4,501.9,188.4z M501.1,193.7h1.6
				v12.8h-1.6V193.7z"/>
			<path class="st0" d="M506.2,193.7h1.6v2.3c0.7-0.9,1.4-1.5,2.2-2s1.7-0.7,2.6-0.7c1,0,1.8,0.2,2.6,0.7c0.7,0.5,1.3,1.1,1.6,2
				c0.4,0.8,0.5,2.1,0.5,3.9v6.6h-1.6v-6.1c0-1.5-0.1-2.5-0.2-3c-0.2-0.8-0.6-1.5-1.1-1.9c-0.5-0.4-1.3-0.6-2.1-0.6
				c-1,0-1.9,0.3-2.7,1s-1.3,1.5-1.6,2.5c-0.2,0.6-0.2,1.8-0.2,3.5v4.7h-1.6V193.7z"/>
			<path class="st0" d="M520.9,188.7h1.6v10.1l5.9-5.2h2.4l-7,6.1l7.5,6.7H529l-6.5-5.8v5.8h-1.6V188.7z"/>
			<path class="st0" d="M540,189.2h8.7v1.7h-7v5.4h7v1.7h-7v8.5H540V189.2z"/>
			<path class="st0" d="M557.5,193.4c2,0,3.6,0.7,4.9,2.1c1.2,1.3,1.8,2.8,1.8,4.6c0,1.8-0.6,3.4-1.9,4.7c-1.2,1.3-2.9,2-4.8,2
				c-2,0-3.6-0.7-4.8-2c-1.2-1.3-1.9-2.9-1.9-4.7c0-1.8,0.6-3.3,1.8-4.6C553.9,194.1,555.5,193.4,557.5,193.4z M557.5,195
				c-1.4,0-2.6,0.5-3.5,1.5c-1,1-1.5,2.2-1.5,3.7c0,0.9,0.2,1.8,0.7,2.6s1.1,1.4,1.8,1.9c0.8,0.4,1.6,0.7,2.5,0.7
				c0.9,0,1.8-0.2,2.5-0.7c0.8-0.4,1.4-1.1,1.8-1.9c0.5-0.8,0.7-1.7,0.7-2.6c0-1.4-0.5-2.7-1.5-3.7C560,195.5,558.8,195,557.5,195z"
				/>
			<path class="st0" d="M573.3,193.4c2,0,3.6,0.7,4.9,2.1c1.2,1.3,1.8,2.8,1.8,4.6c0,1.8-0.6,3.4-1.9,4.7c-1.2,1.3-2.9,2-4.8,2
				c-2,0-3.6-0.7-4.8-2c-1.2-1.3-1.9-2.9-1.9-4.7c0-1.8,0.6-3.3,1.8-4.6C569.7,194.1,571.3,193.4,573.3,193.4z M573.3,195
				c-1.4,0-2.6,0.5-3.5,1.5c-1,1-1.5,2.2-1.5,3.7c0,0.9,0.2,1.8,0.7,2.6s1.1,1.4,1.8,1.9c0.8,0.4,1.6,0.7,2.5,0.7
				c0.9,0,1.8-0.2,2.5-0.7c0.8-0.4,1.4-1.1,1.8-1.9c0.5-0.8,0.7-1.7,0.7-2.6c0-1.4-0.5-2.7-1.5-3.7C575.8,195.5,574.6,195,573.3,195
				z"/>
			<path class="st0" d="M584.5,188.9h1.6v4.8h2.6v1.4h-2.6v11.4h-1.6v-11.4h-2.3v-1.4h2.3V188.9z"/>
			<path class="st0" d="M591.3,206.5v-17.8h1.6v7.2c0.7-0.8,1.5-1.5,2.3-1.9c0.9-0.4,1.8-0.6,2.8-0.6c1.8,0,3.4,0.7,4.6,2
				c1.3,1.3,1.9,2.9,1.9,4.8c0,1.9-0.6,3.4-1.9,4.7c-1.3,1.3-2.9,2-4.7,2c-1,0-2-0.2-2.8-0.7c-0.8-0.4-1.6-1.1-2.2-2v2.4H591.3z
				 M597.9,205.3c0.9,0,1.8-0.2,2.5-0.7c0.8-0.5,1.4-1.1,1.9-1.9c0.5-0.8,0.7-1.7,0.7-2.6c0-0.9-0.2-1.8-0.7-2.6
				c-0.5-0.8-1.1-1.5-1.9-1.9s-1.6-0.7-2.5-0.7c-0.9,0-1.8,0.2-2.6,0.7c-0.8,0.5-1.4,1.1-1.9,1.9c-0.4,0.8-0.7,1.7-0.7,2.6
				c0,1.5,0.5,2.7,1.5,3.7C595.3,204.8,596.5,205.3,597.9,205.3z"/>
			<path class="st0" d="M620.4,193.7v12.8h-1.6v-2.2c-0.7,0.8-1.5,1.5-2.3,1.9c-0.9,0.4-1.8,0.6-2.8,0.6c-1.8,0-3.4-0.7-4.6-2
				c-1.3-1.3-1.9-2.9-1.9-4.8c0-1.8,0.6-3.4,1.9-4.7c1.3-1.3,2.9-2,4.7-2c1.1,0,2,0.2,2.9,0.7c0.9,0.4,1.6,1.1,2.2,2v-2.4H620.4z
				 M613.8,195c-0.9,0-1.8,0.2-2.5,0.7c-0.8,0.5-1.4,1.1-1.9,1.9s-0.7,1.7-0.7,2.6c0,0.9,0.2,1.8,0.7,2.6c0.5,0.8,1.1,1.5,1.9,1.9
				s1.6,0.7,2.5,0.7c0.9,0,1.8-0.2,2.6-0.7c0.8-0.5,1.4-1.1,1.9-1.8c0.4-0.8,0.7-1.7,0.7-2.6c0-1.5-0.5-2.7-1.5-3.7
				C616.5,195.5,615.3,195,613.8,195z"/>
			<path class="st0" d="M623.9,188.7h1.6v17.8h-1.6V188.7z"/>
			<path class="st0" d="M628.7,188.7h1.6v17.8h-1.6V188.7z"/>
		</g>
		<path class="st0" d="M232.7,65.4c0-1.1,0.2-2.2,0.7-3.2c0.4-1,1-1.9,1.8-2.7c0.8-0.8,1.7-1.4,2.7-1.8c1-0.4,2.1-0.7,3.2-0.7
			c1.1,0,2.2,0.2,3.3,0.7c1.1,0.4,2,1,2.8,1.8c0.8,0.8,1.4,1.6,1.9,2.7c0.5,1,0.7,2.2,0.7,3.3v18.4H287c2.3,0,4.3,0.8,5.9,2.5
			c1.6,1.7,2.4,3.7,2.4,6c0,2.3-0.8,4.2-2.4,5.7c-1.6,1.5-3.6,2.3-6,2.3h-37.4V131c0,4,0.8,7.8,2.3,11.2c1.5,3.5,3.6,6.5,6.2,9.1
			c2.6,2.6,5.7,4.6,9.2,6.1c3.5,1.5,7.4,2.2,11.4,2.2c3.6,0,6.9-0.5,10.1-1.6c3.2-1,6.1-2.8,8.7-5.2c2-1.9,4.1-2.8,6.3-2.8
			c0.9,0,1.9,0.2,2.8,0.6c0.9,0.4,1.7,0.9,2.4,1.6c0.7,0.7,1.3,1.5,1.7,2.4c0.4,0.9,0.6,2,0.6,3.1c0,1.3-0.3,2.5-0.8,3.8
			c-0.5,1.3-1.3,2.4-2.2,3.3c-4,3.8-8.4,6.6-13.4,8.5c-5,1.9-10.4,2.8-16.2,2.8c-6.4,0-12.4-1.2-18-3.5c-5.6-2.3-10.5-5.5-14.6-9.6
			c-4.2-4.1-7.4-8.9-9.8-14.4c-2.4-5.5-3.6-11.5-3.6-17.9V65.4z"/>
		<path class="st0" d="M335.6,137.8c0.7,3.2,1.9,6.2,3.6,8.9c1.7,2.7,3.8,5.1,6.2,7.1c2.4,2,5.2,3.6,8.2,4.7c3,1.1,6.3,1.7,9.6,1.7
			c3.3,0,6-0.3,8.1-0.9c2.1-0.6,4.3-1.5,6.4-2.8c1.8-1,3.4-1.5,5-1.5c1.1,0,2.2,0.2,3.2,0.7c1,0.5,1.8,1.1,2.6,1.9
			c0.8,0.8,1.3,1.7,1.8,2.8c0.4,1.1,0.7,2.2,0.7,3.3c0,2-0.8,3.8-2.3,5.3c-1.5,1.5-3.5,2.8-6.1,3.9c-2.5,1.1-5.5,1.9-8.8,2.4
			c-3.4,0.6-6.9,0.8-10.5,0.8c-6.3,0-12.3-1.2-17.9-3.6c-5.6-2.4-10.5-5.7-14.7-9.8c-4.2-4.1-7.5-9-9.9-14.6
			c-2.4-5.6-3.6-11.5-3.6-17.9c0-6.4,1.2-12.4,3.6-18c2.4-5.6,5.7-10.4,9.9-14.6c4.2-4.1,9.1-7.4,14.7-9.8
			c5.6-2.4,11.6-3.6,17.9-3.6c6.3,0,12.2,1.2,17.8,3.6c5.6,2.4,10.5,5.6,14.6,9.8c4.2,4.1,7.5,9,9.9,14.5c2.4,5.6,3.7,11.5,3.8,17.7
			c0,2.3-0.8,4.1-2.3,5.6c-1.5,1.5-3.5,2.3-5.8,2.3H335.6z M392.3,123.8c-0.6-3.4-1.7-6.5-3.4-9.4c-1.7-2.9-3.9-5.4-6.4-7.5
			c-2.5-2.1-5.4-3.8-8.7-5c-3.2-1.2-6.7-1.8-10.3-1.8c-3.7,0-7.2,0.6-10.4,1.8c-3.2,1.2-6.1,2.9-8.6,5.1c-2.5,2.2-4.6,4.7-6.2,7.6
			c-1.6,2.9-2.7,6-3.3,9.2H392.3z"/>
		<path class="st0" d="M526.7,116.4v-1.2c0-4.3,0.8-8.3,2.4-12c1.6-3.8,3.8-7,6.6-9.8c2.8-2.8,6.1-5,9.8-6.6c3.7-1.6,7.7-2.4,12-2.4
			c4.5,0,8.7,0.9,12.6,2.7c3.9,1.8,7.2,4.2,10.1,7.3c2.8-3.1,6.2-5.5,10-7.3c3.9-1.8,8.1-2.7,12.6-2.7c4.3,0,8.3,0.8,12.2,2.4
			c3.8,1.6,7.2,3.8,10,6.6c2.9,2.8,5.1,6.1,6.8,9.8c1.7,3.8,2.5,7.8,2.5,12v51.6c0,2.4-0.8,4.4-2.5,5.9c-1.6,1.6-3.6,2.4-5.9,2.4
			c-2.3,0-4.3-0.8-5.9-2.4c-1.6-1.6-2.4-3.5-2.4-5.9v-50.6c0-2-0.4-3.9-1.2-5.7c-0.8-1.8-1.8-3.4-3.2-4.7c-1.3-1.3-2.9-2.4-4.7-3.2
			c-1.8-0.8-3.7-1.2-5.7-1.2c-1.9,0-3.6,0.3-5.3,1c-1.7,0.7-3.1,1.6-4.4,2.9c-1.3,1.2-2.3,2.7-3.1,4.3c-0.8,1.6-1.2,3.4-1.4,5.2
			c0.1,0.2,0.1,0.6,0.1,1.1V135c0,1.2-0.2,2.3-0.7,3.3c-0.4,1-1,1.9-1.8,2.6c-0.8,0.8-1.6,1.3-2.6,1.8s-2.1,0.7-3.2,0.7
			c-2.3,0-4.3-0.8-5.9-2.4c-1.6-1.6-2.4-3.6-2.4-6v-18.8c0-2.1-0.4-4-1.1-5.8c-0.8-1.8-1.8-3.4-3.1-4.8c-1.3-1.4-2.8-2.5-4.6-3.2
			c-1.8-0.8-3.6-1.2-5.6-1.2c-1.9,0-3.6,0.3-5.3,1c-1.6,0.7-3.1,1.6-4.4,2.7c-1.3,1.1-2.4,2.5-3.2,4c-0.8,1.5-1.4,3.2-1.6,4.9
			c0.1,0.3,0.1,0.6,0.1,0.8c0,0.2,0,0.5,0,0.8l-0.3,51.3c0,2.4-0.8,4.4-2.4,5.9c-1.6,1.6-3.5,2.4-5.7,2.4c-2.3,0-4.3-0.8-5.9-2.4
			c-1.6-1.6-2.4-3.5-2.4-5.9V116.4z"/>
	</g>
	<g>
		<path class="st1" d="M103.9,93.3c-2.9-2.8-6.2-5-10-6.6C90,85,86,84.2,81.7,84.2c-4.5,0-8.7,0.9-12.6,2.7c-3.9,1.8-7.2,4.2-10,7.3
			c-2.9-3.1-6.3-5.5-10.1-7.3c-3.9-1.8-8.1-2.7-12.6-2.7c-4.3,0-8.3,0.8-12,2.4c-3.7,1.6-7,3.8-9.8,6.6c-2.8,2.8-5,6.1-6.6,9.8
			c-1.6,3.8-2.4,7.8-2.4,12v1.2v50.4c0,2.4,0.8,4.4,2.4,5.9c1.6,1.6,3.6,2.4,5.9,2.4c2.2,0,4.1-0.8,5.7-2.4c1.6-1.6,2.4-3.5,2.4-5.9
			l0.3-51.3c0-0.3,0-0.6,0-0.8c0-0.2-0.1-0.5-0.1-0.8c0.2-1.8,0.8-3.4,1.6-4.9c0.8-1.5,1.9-2.9,3.2-4c1.3-1.1,2.7-2,4.4-2.7
			c1.6-0.7,3.4-1,5.3-1c2,0,3.9,0.4,5.6,1.2c1.8,0.8,3.3,1.9,4.6,3.2c1.3,1.4,2.3,3,3.1,4.8c0.8,1.8,1.1,3.7,1.1,5.8V135
			c0,2.4,0.8,4.4,2.4,6c1.6,1.6,3.6,2.4,5.9,2.4c1.1,0,2.2-0.2,3.2-0.7c1-0.4,1.9-1,2.6-1.8s1.4-1.6,1.8-2.6c0.4-1,0.7-2.1,0.7-3.3
			v-19.2c0-0.6,0-0.9-0.1-1.1c0.1-1.8,0.6-3.5,1.4-5.2c0.8-1.6,1.8-3.1,3.1-4.3c1.3-1.2,2.8-2.2,4.4-2.9c1.7-0.7,3.4-1,5.3-1
			c2,0,3.9,0.4,5.7,1.2c1.8,0.8,3.4,1.9,4.7,3.2c1.3,1.4,2.4,2.9,3.2,4.7c0.8,1.8,1.2,3.7,1.2,5.7v50.6c0,2.4,0.8,4.4,2.4,5.9
			c1.6,1.6,3.6,2.4,5.9,2.4c2.3,0,4.2-0.8,5.9-2.4c1.6-1.6,2.5-3.5,2.5-5.9v-51.6c0-4.3-0.8-8.3-2.5-12
			C109,99.4,106.8,96.1,103.9,93.3z"/>
		<path class="st1" d="M208.5,84.2c-2.3,0-4.3,0.8-6,2.4c-1.7,1.6-2.5,3.6-2.5,5.9v38.4c0,4-0.7,7.6-2.2,11
			c-1.4,3.4-3.4,6.4-5.9,8.9c-2.5,2.5-5.4,4.5-8.7,6c-3.3,1.4-6.9,2.2-10.7,2.2c-3.8,0-7.4-0.7-10.8-2.1c-3.4-1.4-6.3-3.4-8.8-5.8
			c-2.5-2.5-4.5-5.4-5.9-8.7c-1.4-3.3-2.2-6.9-2.2-10.8v-39c0-1.2-0.2-2.3-0.7-3.3c-0.4-1-1.1-1.9-1.8-2.6c-0.8-0.8-1.7-1.3-2.6-1.7
			c-1-0.4-2.1-0.6-3.2-0.6c-2.3,0-4.3,0.8-5.9,2.4c-1.6,1.6-2.4,3.6-2.4,5.9v38.8c0,5.4,0.9,10.5,2.7,15.3c1.8,4.8,4.3,9.2,7.5,13
			c3.2,3.9,7,7.1,11.3,9.7c4.3,2.6,9.1,4.4,14.2,5.4v23.9c0,2.4,0.8,4.4,2.4,6c1.6,1.6,3.6,2.4,6,2.4c1.2,0,2.3-0.2,3.2-0.6
			c1-0.4,1.8-1,2.6-1.8c0.8-0.8,1.3-1.7,1.8-2.7c0.4-1,0.7-2.1,0.7-3.2v-23.8c5.1-0.9,9.9-2.7,14.3-5.3c4.4-2.6,8.2-5.8,11.4-9.7
			c3.2-3.9,5.8-8.2,7.6-13.1c1.8-4.9,2.7-10,2.7-15.5V92.5c0-2.3-0.8-4.3-2.3-5.9C212.9,85,210.9,84.2,208.5,84.2z"/>
		<g>
			<g class="st2">
				<path class="st1" d="M497.1,124.5c0,16.6-13.5,30.1-30.1,30.1c-16.6,0-30.1-13.5-30.1-30.1c0-5.3,1.4-10.3,3.8-14.7l-16.2-4.1
					c-0.2,0.5-0.4,0.9-0.6,1.4c-2.4,5.6-3.6,11.6-3.6,17.9c0,6.3,1.2,12.3,3.6,17.9c2.4,5.6,5.6,10.5,9.7,14.6
					c4.1,4.1,8.9,7.4,14.4,9.8c5.5,2.4,11.5,3.6,17.8,3.6c5.5,0,10.7-0.9,15.6-2.7c4.9-1.8,9.3-4.4,13.3-7.7l0.1,1.3
					c0,2.4,0.8,7.2,2.3,8.9c1.5,1.7,3.5,2.5,5.9,2.5c2.4,0,4.4-0.8,6.1-2.5c1.6-1.7,2.5-6.4,2.5-8.8V125c0.4-15.9,3.5-31-2.8-37.5
					L490,105.1C494.4,110.4,497.1,117.1,497.1,124.5z"/>
			</g>
			<path class="st1" d="M473.7,79.6c0.7-1.1,1.7-2.3,1.5-3.7c-0.2-2.1-0.8-0.5-0.7-3.8c0.1-3.3,1-4.7,2.8-8.6
				c1.8-3.9,3.5-4.1,6.2-8.6c2.7-4.5,0.5-5.2,6.2-3.6c5.7,1.6,9.3,2.7,10.5,1.5c1.2-1.2,1.9-2,1.9-2s5.6,0.7,8,0.7
				c2.4,0,4-0.4,9-1.8c5-1.4,12.4-4.4,15.2-4.2c2.8,0.1,5.1-0.2,6.5-1.3c1.3-1,2.3-1.6,2.9-1.5c0.6,0.1,2.1,0.7,4.4,0.2
				c2.4-0.6,1.5-0.8,1.8-1.7c0.3-0.9,0.7-1.2-0.4-2c-1.1-0.7-1.1-2.2-2.8-2.1c-1.7,0.1-5.7-1-8.7,1.1c-3,2.1-4.7,2.2-9.6,3
				c-4.9,0.8-17.5,0.7-20.6,2.2c0,0-2.1-0.5-3.5-1.1c-1.4-0.5-5.5-1.2-7.3-2.7c-1.7-1.5-7-6.6-10.2-7.5c-3.2-0.9-4.5-1.2-5.1-1.5
				c-0.6-0.3-1.2-0.5-1.2-0.5s-0.7-3.1,0.9-4.9c1.6-1.8,2.4-2.8,2.8-4c0.4-1.2,2-6,1.4-8.3c-0.6-2.3-2-6.2-6.2-6.7
				c-4.3-0.5-5.7-0.9-8.9,2c-3.2,2.9-2.8,4.8-2.4,7.2c0,0,0.1,1.4-0.2,2.1c-0.3,0.8,0.2,1,0.2,1.8c0,0.7-0.3,1.5-0.1,2.8
				s0.2,3.2,0.2,3.2s-1.3,0.3-1.5,1.1c0,0-5.5-2-8.7-1c-3.2,1.1-5.4,0.9-8.6,1.2c-3.2,0.2-5.1,2-9.2,2.8c-4,0.8-4.2,2.8-5.3,2.3
				c-1.1-0.6-0.2,0.6,0.3,1.8c0.5,1.2,0.6,2.3,0.6,2.3s-6.8-0.2-13,2.3c-6.2,2.4-10.3,3.5-17.3,3.4c-7-0.1-6.3,0.4-7.3,0.9
				c-1,0.4-6.1,1-5.7,1.9c0.4,0.9,1.8,1.1,1.8,1.1s-1.7,1.2-1.1,1.6c0.6,0.4,3.2-1.2,5-1.4c1.7-0.2-0.4,0.5,0,1.8
				c0.4,1.3,1.6-0.2,3.8,0c2.2,0.1,4.7-0.5,7.1-1.8c2.4-1.3,11.2-1.9,16.3-1.5c5.1,0.4,10.6-0.9,12.7-2.6c0,0,1.1,1.1,2.8,0.6
				c0,0,6.8-2.7,8.9-2.4c2.2,0.3,4.3,0.1,4.3,0.1s0.7,2.6,0.4,4.6c-0.2,2-1.1,3.7-0.9,5.8c0.3,2.1-1.6,4.2-2.4,7.8
				c-0.8,3.7-4.5,10-6.6,14.1c-2,4.1-1.2,4.4-2.4,9.3c-0.3,1.3-0.7,2.9-1.1,4.7c-1.5,0.6-2.8,1.7-3.9,3c-1.3,1-2.5,2.1-3.6,3.3
				c-3.8,3.8-6.8,8.2-9.1,13.2l16.2,4.1c5.1-9.2,15-15.5,26.3-15.5c6.2,0,11.9,1.9,16.7,5l19.7-16"/>
		</g>
	</g>
</g>
</svg>
