<?xml version="1.0" encoding="utf-8"?>
<!-- Generator: Adobe Illustrator 22.1.0, SVG Export Plug-In . SVG Version: 6.00 Build 0)  -->
<svg version="1.1" id="Calque_1" xmlns="http://www.w3.org/2000/svg" xmlns:xlink="http://www.w3.org/1999/xlink" x="0px" y="0px"
	 viewBox="0 0 141.7 141.7" style="enable-background:new 0 0 141.7 141.7;" xml:space="preserve">
<g>
	<path d="M42.8,66.2c0,0.5,0,0.9,0,1.4c-0.1,0.8-0.1,1.5,0,2.3c0,0.4,0,0.9,0,1.3c-0.1,0.8-0.1,1.5,0,2.3c0,0.4,0,0.9,0,1.3
		c-0.1,0.8-0.1,1.5,0,2.3c0,0.4,0,0.9,0,1.3c-0.1,0.8-0.1,1.5,0,2.3c0,0.5,0,0.9,0,1.4c-0.1,0.7-0.1,1.5,0,2.2c0,0.5,0,0.9,0,1.4
		c-0.1,1-0.1,1,1,1c0.2,0,0.4,0,0.6,0c0.8,0,1.7,0.2,2.4-0.3c0.1,0,0.2-0.1,0.3-0.2c0.9-0.8,0.7-1.8,0.7-2.7c0.1-0.3,0.1-0.5,0-0.8
		c0.1-0.9,0.1-1.9,0-2.8c0.1-0.3,0.1-0.5,0-0.8c0.1-0.9,0.1-1.9,0-2.8c0.1-0.3,0.1-0.5,0-0.8c0.1-0.9,0.1-1.9,0-2.8
		c0.1-0.3,0.1-0.5,0-0.8c0.1-0.9,0.1-1.9,0-2.8c0.1-0.3,0.1-0.5,0-0.8c0.1-0.9,0.1-1.9,0-2.8c0.2-1.9-0.6-2.8-2.5-2.7
		c-0.8,0-1.5,0-2.3,0c-0.1,0-0.1,0-0.1,0.1c0,0.3,0,0.7,0,1C42.8,64.7,42.8,65.4,42.8,66.2z"/>
	<path d="M64.9,44c0.2,0.4,0.4,0.8,0.5,1.3c0.2,0.5,0.5,0.8,1,0.8c0.8,0.3,1.6,0.4,2.4,0.6c0.6,0.1,0.9-0.4,1.3-0.7
		c0.9-0.6,1.8-1.3,2.7-1.9c0.6-0.4,0.8-0.8,0.6-1.5c0-0.7,0-1.4,0-2c0-0.4,0.2-0.8-0.2-1.1c-1-0.7-2-1.4-3-2.2c-1-0.9-1-0.9-1.9-0.4
		c-1.9,0.9-3.4,2.2-4.6,3.9c-0.1,0.2-0.2,0.3-0.1,0.5C64.1,42.3,64.5,43.1,64.9,44z"/>
	<path d="M75.6,40.7c0,0.6,0,1.2,0,1.8c0,0.4-0.2,0.9,0.2,1.2c1.2,0.9,2.3,1.7,3.5,2.5c0.3,0.3,0.6,0.7,1.2,0.3
		c0.8-0.1,1.5-0.3,2.3-0.5c0.3,0,0.6,0,0.8-0.4c0.2-0.5,0.4-1.1,0.7-1.6c0.3-0.7,0.6-1.3,0.9-2c0.1-0.2,0.2-0.3,0.2-0.5
		c0.2-0.2,0.1-0.3,0-0.5c-1.2-1.4-2.5-2.7-4.1-3.6c-1.3-0.9-1.3-0.9-2.3,0c-0.9,0.6-1.7,1.3-2.6,1.8C75.7,39.5,75.4,40,75.6,40.7z"
		/>
	<path d="M72.3,68C72.3,68,72.2,68,72.3,68c-0.8,0.3-1.5,0.7-2.1,1.2c-0.2,0.1-0.3,0.2-0.4,0.4c-0.6,0.5-1.1,1.1-1.4,1.8
		c-0.3,0.5-0.5,1-0.7,1.6c-0.1,0.3-0.1,0.7-0.2,1l0,0v0c0,0.1,0,0.2,0,0.3c0,0.1,0,0.3,0,0.4c0,0.8,0.1,1.5,0.4,2.2
		c0,0.1,0,0.3,0.1,0.4c0.2,0.7,0.6,1.4,1.1,1.9c0.1,0.2,0.2,0.3,0.4,0.4c0.5,0.5,1,1,1.7,1.2c0.6,0.4,1.3,0.6,2,0.8
		c0.3,0.1,0.4,0,0.4-0.3c0-0.8,0-1.6,0-2.4c0-0.7,0-1.4,0-2.2c0-0.5,0-1,0-1.5c0-0.7,0-1.4,0-2c0-0.5,0-1,0-1.5c0-0.7,0-1.4,0-2.2
		c0-0.2,0-0.3,0-0.5C73.5,67.5,73.5,67.5,72.3,68z"/>
	<path d="M85.9,56.2c0.3-0.5,0.6-0.9,0.8-1.4c0.2-0.2,0.2-0.4,0.3-0.6c0.3-0.5,0.5-1.1,0.6-1.7c0.3-1.1,0.3-1.1-0.7-1.8
		c-0.5-0.5-1.1-1-1.6-1.4C85.3,49.1,85.2,49,85,49c-0.6-0.9-1.4-1.2-2.5-0.8c-0.1,0-0.1,0-0.2,0.1c-1.6,0-2.3,0.9-2.5,2.4
		c0,0.1,0,0.2-0.1,0.2c-0.3,0.8-0.5,1.5-0.7,2.3c-0.5,0.7,0.2,1.1,0.4,1.6c0,0.3,0.3,0.4,0.4,0.7c0.3,0.8,0.8,1,1.6,0.8
		c0.2,0,0.3,0,0.5,0c1,0,2,0.1,2.9,0.1C85.3,56.4,85.7,56.6,85.9,56.2z"/>
	<path d="M78.2,48c-0.9-0.6-1.8-1.2-2.6-1.9c-0.2-0.1-0.4-0.3-0.5-0.4c-0.4-0.4-0.7-0.4-1,0c-1.1,0.8-2.1,1.5-3.2,2.3
		c-0.2,0.1-0.2,0.3-0.1,0.5c0.4,1.1,0.7,2.1,1.1,3.2c0.3,1.2,0.3,1.2,1.6,1.2c0.3,0,0.6,0,0.8,0c0.3,0.1,0.6,0.1,0.9,0
		c1.9,0.2,1.9,0.2,2.3-1.2c0,0,0,0,0-0.1c0.3-1,0.7-2,1-3C78.5,48.4,78.5,48.2,78.2,48z"/>
	<path d="M70,53.3c-0.2-0.8-0.5-1.5-0.7-2.3c-0.1-0.3-0.2-0.6-0.2-0.9c-0.1-1.2-0.8-1.7-2-1.7c-0.2,0-0.4,0-0.5-0.1
		c-1-0.5-1.7-0.2-2.3,0.6c-0.1,0-0.2,0.1-0.3,0.3c-0.6,0.4-1.1,0.9-1.6,1.4c-0.1,0-0.2,0.1-0.3,0.2c-0.7,0.3-0.8,0.8-0.5,1.5
		c0.2,0.4,0.3,0.9,0.5,1.4c0,0.2,0.1,0.4,0.2,0.5c0,0.1,0,0.2,0.1,0.3c0.1,0.5,0.4,0.8,0.6,1.3c0.3,0.7,0.7,1,1.5,0.7
		c0.9-0.1,1.8,0,2.7-0.2c0.2,0.1,0.4,0,0.6,0c0.7,0.1,1.1-0.1,1.4-0.7c0.1-0.3,0.4-0.6,0.5-0.9C69.8,54.3,70.4,53.9,70,53.3z"/>
	<path d="M76.9,61.9c0.2-0.5,0.4-1.1,0.6-1.6c0.1-0.3,0.2-0.6,0.3-0.9C78,59.3,78,59.1,78,59c0.1-0.3,0.3-0.6,0.4-0.8
		c0-0.1,0-0.1,0.1-0.2c0-0.1,0-0.1,0-0.2c0-0.1,0-0.1,0-0.2c0.1-0.4,0-0.9-0.5-1.3c0-0.1,0-0.1-0.1-0.2c0,0,0,0-0.1,0
		C77.6,55.2,77,54.8,76,55c-0.1,0-0.2,0-0.3,0C75,55,74.2,55,73.5,55c-1-0.1-1.9-0.2-2.3,1c-0.1,0-0.1,0.1-0.1,0.2
		c-0.7,0.7-0.9,1.4-0.4,2.2c0.2,0.2,0.2,0.5,0.4,0.8c0,0.1,0,0.3,0.1,0.4c0,0.1,0.1,0.2,0.1,0.2c0.3,0.7,0.5,1.3,0.7,2
		c0.1,0.3,0.2,0.4,0.5,0.4c0.4,0,0.8,0.1,1.3,0.1c0.6,0.1,1.1,0.1,1.7,0c0.3,0,0.6-0.1,0.9-0.1C76.6,62.3,76.8,62.2,76.9,61.9z"/>
	<path d="M83.6,58.4c-0.9,0.2-1.8,0-2.7,0c-0.2,0-0.3,0.1-0.4,0.3c-0.4,0.9-0.7,1.9-1.1,2.9c1.5-0.5,3.4-1.7,4.4-2.7
		c0.1-0.1,0.3-0.1,0.2-0.3C83.8,58.5,83.7,58.4,83.6,58.4z"/>
	<path d="M85.5,46.7c0.8,0.7,1.6,1.4,2.4,2.2c0.1-1.5-0.5-4.1-1.2-5.4c-0.5,0.9-0.8,1.9-1.3,2.9C85.4,46.5,85.4,46.6,85.5,46.7z"/>
	<path d="M63.6,46.3c-0.4-1-0.8-1.9-1.2-3c-0.8,1.8-1.3,3.5-1.3,5.6c0.9-0.8,1.6-1.4,2.4-2.1C63.7,46.6,63.7,46.5,63.6,46.3z"/>
	<path d="M74.8,37.7c0.8-0.6,1.6-1.2,2.5-1.9c-1.9-0.4-3.7-0.4-5.6,0c0.9,0.7,1.8,1.3,2.6,1.9C74.5,37.9,74.7,37.8,74.8,37.7z"/>
	<path d="M68.2,58.3c-1,0.1-2,0.1-3.1,0.2c1.5,1.3,2.9,2.3,4.8,3.1c-0.4-1.1-0.8-2-1.1-2.9C68.5,58.4,68.4,58.2,68.2,58.3z"/>
	<path d="M95.1,76.5c0.6,1.9,2,3,3.8,3.6c0.3,0.1,0.5,0.1,0.5-0.3c0-0.5,0-1.1,0-1.6c0-0.3,0-0.7,0-1c0-0.9,0-1.7,0-2.6
		c0-0.3,0-0.7,0-1c0-0.9,0-1.7,0-2.6c0-0.4,0-0.8,0-1.3c0-0.4-0.1-0.5-0.5-0.4c-0.8,0.3-1.6,0.6-2.2,1.3c-0.1,0-0.2,0.1-0.3,0.2
		c-0.6,0.6-1.1,1.2-1.3,2C95,73,95,73.1,95,73.2c-0.2,0.6-0.3,1.2-0.2,1.8c0,0.2,0,0.3,0.1,0.5C94.9,75.9,95,76.2,95.1,76.5z"/>
	<path d="M49.7,78.1c0,0.6,0,1.1,0,1.7c0,0.3,0.1,0.4,0.4,0.3c1.7-0.5,2.9-1.5,3.7-3.1c0.2-0.5,0.5-1,0.4-1.5
		c0.2-0.8,0.1-1.7-0.3-2.4c-0.1-0.5-0.3-1-0.6-1.4c-0.2-0.2-0.4-0.5-0.6-0.7c0,0,0-0.1,0-0.1c0,0,0,0,0,0c-0.8-0.8-1.7-1.3-2.8-1.5
		c-0.1,0-0.1,0-0.1,0.1c0,0.5,0,1,0,1.5c0,0.1,0,0.3,0,0.4c0,0.7,0,1.4,0,2c0,0.1,0,0.3,0,0.4c0,0.3,0,0.5,0,0.8c0,0.1,0,0.3,0,0.4
		c0,0.7,0,1.4,0,2c0,0.1,0,0.3,0,0.4C49.7,77.5,49.7,77.8,49.7,78.1z"/>
	<path d="M73.5,94.7c0-0.5,0-1,0-1.5c0-0.7,0-1.4,0-2c0-0.5,0-1,0-1.5c0-0.7,0-1.4,0-2c0-0.5,0-1,0-1.5c0-0.5,0-0.9,0-1.4
		c0-0.9,0-0.9-1-1.1c0,0,0,0-0.1,0c-0.1-0.1-0.3-0.1-0.4-0.1c-0.7-0.3-1.5-0.6-2.2-1c-1.5-1-2.7-2.3-3.5-3.9
		c-0.3-0.7-0.5-1.5-0.7-2.3c0-0.3,0-0.5-0.1-0.8c0-1,0.1-2,0.2-2.9c0.1-0.2,0.1-0.4,0.2-0.6c0.3-0.6,0.5-1.1,0.8-1.7
		c0.1-0.1,0.2-0.3,0.3-0.4c0.5-0.6,0.9-1.1,1.4-1.7c0.1-0.1,0.2-0.1,0.3-0.3c0.6-0.4,1.3-0.8,1.9-1.2c0.7-0.3,1.5-0.6,2.2-0.7
		c0.1,0,0.2,0,0.3,0c0.1,0,0.3,0,0.3-0.2c0-0.3-0.2-0.2-0.4-0.2c-0.9-0.1-1.7-0.2-2.5-0.5c-0.2-0.1-0.4-0.1-0.6-0.2
		c-0.3-0.1-0.6-0.2-0.9-0.3c-0.3-0.1-0.6-0.2-0.9-0.3c-0.3-0.1-0.7-0.3-1-0.4c-0.1-0.2-0.3-0.2-0.5-0.3c-0.6-0.4-1.3-0.8-1.9-1.2
		c-0.1-0.1-0.2-0.1-0.3-0.2c-0.5-0.4-1-0.9-1.5-1.3c-0.1-0.2-0.2-0.3-0.4-0.4c-0.4-0.5-0.8-1-1.2-1.5c-0.1-0.1-0.2-0.3-0.3-0.4
		c-0.4-0.6-0.8-1.3-1.1-1.9c-0.1-0.2-0.1-0.4-0.3-0.6c0-0.2-0.1-0.4-0.3-0.6c-0.2-0.6-0.4-1.2-0.7-1.8c-0.1-0.5-0.3-1.1-0.3-1.6
		c0-0.6-0.3-0.8-0.8-0.6c-0.7,0-1.5,0-2.2,0c-0.5,0-0.9,0-1.4,0c-0.8,0-1.5,0-2.3,0c-0.4,0-0.9,0-1.3,0c-0.8,0-1.5,0-2.3,0
		c-0.4,0-0.9,0-1.3,0c-0.7-0.1-1.4,0.1-2.1,0.5c-0.8,0.4-1.3,0.9-1.6,1.7c-0.4,0.6-0.5,1.2-0.4,1.9c0,0.4,0,0.9,0,1.3
		c-0.1,0.8-0.1,1.5,0,2.3c0,0.1,0,0.2,0,0.3c0,1.7,0,1.7,1.7,1.5c0.9,0.1,1.8,0,2.7,0.2c0.1,0.1,0.2,0.1,0.4,0.1
		c0.2,0.1,0.3,0.2,0.5,0.3c0.5,0.4,0.9,0.8,1.3,1.4c0.1,0.1,0.1,0.3,0.2,0.4l0,0c0.1,0.3,0.2,0.6,0.2,0.9c0,0.6,0,1.2,0,1.8
		c0,0.2,0,0.3,0,0.5c0,0.2,0,0.3,0,0.5c0,0.1,0,0.1,0.1,0.1c0.6,0.2,1.3,0.4,1.9,0.6c0.9,0.4,1.6,1,2.3,1.6c0.7,0.7,1.2,1.4,1.6,2.3
		c0.3,0.7,0.4,1.4,0.6,2.2c0,0.2,0,0.3,0,0.5c0,0.9-0.1,1.8-0.4,2.7c-1.1,2.8-3.1,4.5-6,5.1c0,0-0.1,0-0.1,0c-0.1,0-0.1,0.1-0.1,0.2
		c0,0.6,0,1.2,0,1.8c0,0.2,0,0.4,0,0.5c0,0.2,0,0.4,0,0.6c0,0.2-0.1,0.3-0.1,0.5c-0.2,0.7-0.6,1.2-1.1,1.8c-0.1,0.1-0.2,0.2-0.3,0.3
		c-0.2,0.2-0.5,0.3-0.7,0.4c-0.4,0.2-0.8,0.4-1.3,0.4c-0.1,0-0.2,0-0.4,0.1c0,0,0,0,0,0c-0.1,0-0.2,0-0.3,0c-0.1,0-0.3,0-0.4,0
		c-0.7,0-1.3,0-2,0c-0.5,0-0.6,0.2-0.5,0.6c-0.1,0.8-0.1,1.5,0,2.3c0,0.4,0,0.9,0,1.3c0,0.8-0.1,1.6,0.1,2.3c0.1,0.8,0.5,1.5,1.2,2
		c0,0,0.1,0.1,0.1,0.1c0.8,0.7,1.7,1,2.7,0.9c0.4,0,0.9,0,1.3,0c0.8,0,1.5,0,2.3,0c0.4,0,0.9,0,1.3,0c0.8,0,1.6,0,2.4,0
		c0.4,0,0.8,0,1.2,0c0.8,0,1.6,0,2.4,0c0.4,0,0.8,0,1.2,0c0.8,0,1.6,0,2.4,0c0.4,0,0.9,0,1.3,0c0.8,0,1.5,0,2.3,0c0.4,0,0.9,0,1.3,0
		c0.8,0,1.5,0,2.3,0c0.4,0,0.9,0,1.3,0c0.8,0,1.6,0,2.4,0c1.6,0,1.3,0.3,1.3-1.3C73.5,96.1,73.5,95.4,73.5,94.7z"/>
	<path d="M106.3,63.2c0-0.4-0.1-0.5-0.5-0.5c-0.6,0-1.1,0-1.7,0c-1.5-0.1-2.3,0.2-2.6,1.2c-0.2,0.5-0.2,1-0.1,1.6
		c-0.1,0.9-0.1,1.8,0,2.7c-0.1,0.3-0.1,0.6,0,0.9c-0.1,0.8-0.1,1.7,0,2.5c-0.1,0.4-0.1,0.8,0,1.2c-0.1,0.8-0.1,1.7,0,2.5
		c-0.1,0.4-0.1,0.8,0,1.2c-0.1,0.8-0.1,1.7,0,2.5c-0.1,0.3-0.1,0.6,0,0.9c-0.1,0.9-0.1,1.8,0,2.7c-0.1,0.3-0.1,0.6,0,0.9
		c-0.1,0.9-0.2,1.9,0.7,2.5c0.1,0.1,0.2,0.2,0.4,0.2c0.7,0.3,1.4,0.2,2.2,0.2c0.4,0.1,0.9,0.1,1.3,0c0.4,0.1,0.5-0.1,0.4-0.4
		c0-0.1,0-0.3,0-0.4c0-0.6,0-1.1,0-1.7c0.1-0.6,0.1-1.3,0-1.9c0-0.6,0-1.1,0-1.7c0.1-0.7,0.1-1.4,0-2c0-0.5,0-1,0-1.5
		c0.1-0.7,0.1-1.4,0-2c0-0.5,0-1,0-1.5c0.1-0.7,0.1-1.4,0-2c0-0.5,0-1,0-1.5c0.1-0.7,0.1-1.4,0-2c0-0.6,0-1.1,0-1.7c0-0.3,0-0.6,0-1
		c0-0.3,0-0.6,0-1c0-0.1,0-0.1,0-0.2C106.3,63.7,106.3,63.4,106.3,63.2z"/>
	<path d="M76.7,81.3c0.3-0.1,0.6-0.2,0.9-0.4c0.1,0,0.2,0,0.3-0.1c0.7-0.3,1.3-0.8,1.8-1.4c0.1-0.1,0.2-0.1,0.2-0.3
		c0.6-0.6,0.9-1.3,1.2-2c0-0.1,0-0.2,0.1-0.3c0.3-0.7,0.4-1.3,0.4-2.1c0-0.1,0-0.3,0-0.4c0-0.2,0-0.3,0-0.5
		c-0.1-0.8-0.3-1.6-0.7-2.3c-0.4-0.8-0.9-1.5-1.5-2c-0.1-0.1-0.2-0.1-0.2-0.2c-0.5-0.5-1.2-0.9-1.9-1.1c-0.4-0.3-0.8-0.3-1.2-0.4
		c-0.3-0.1-0.4,0-0.4,0.3c0,0.5,0,1,0,1.5c0,0.6,0,1.3,0,1.9c0,0.6,0,1.2,0,1.8c0,0.6,0,1.2,0,1.8c0,0.6,0,1.2,0,1.8
		c0,0.6,0,1.3,0,1.9c0,0.6,0,1.1,0,1.7C75.5,81.7,75.3,81.7,76.7,81.3z"/>
	<path d="M106.4,60.3c0-0.4,0-0.9,0-1.3c0-0.8,0-1.5,0-2.3c0-0.4,0-0.9,0-1.3c0.1-0.8,0-1.5-0.5-2.1c-0.3-0.7-0.8-1.2-1.4-1.5
		c-0.7-0.5-1.5-0.6-2.3-0.5c-0.3,0-0.7,0-1,0c-0.9,0-1.7,0-2.6,0c-0.3,0-0.7,0-1,0c-0.9,0-1.7,0-2.6,0c-0.3,0-0.7,0-1,0
		c-0.9,0-1.7,0-2.6,0c-0.4-0.1-0.6,0-0.7,0.5c-0.1,0.6-0.3,1.3-0.4,1.9c-0.2,0.6-0.5,1.3-0.7,1.9c-0.1,0.1-0.2,0.3-0.2,0.5
		c-0.1,0.1-0.1,0.2-0.2,0.3c-0.4,0.7-0.9,1.4-1.3,2.1c-0.1,0.1-0.1,0.2-0.2,0.3c-0.4,0.5-0.9,1-1.3,1.5c-0.1,0.1-0.2,0.2-0.3,0.3
		c0,0-0.1,0.1-0.1,0.1c-0.5,0.5-1.1,0.9-1.6,1.4c0,0-0.1,0.1-0.1,0.1c-0.7,0.4-1.4,0.9-2.1,1.3c-0.1,0-0.2,0-0.2,0.1
		c-0.3,0.1-0.5,0.2-0.8,0.4c-1.7,0.7-3.5,1.2-5.3,1.3c-0.2,0-0.3,0-0.3,0.2c0,0.2,0.2,0.2,0.3,0.2c1.1,0.1,2,0.5,3,1
		c0.6,0.4,1.1,0.8,1.7,1.2c0,0,0.1,0.1,0.1,0.1c0.5,0.6,1,1.2,1.5,1.8c0.1,0.1,0.1,0.2,0.2,0.2c0.2,0.5,0.5,1,0.7,1.5
		c0.1,0.3,0.2,0.6,0.3,0.9c0.2,1,0.3,2,0.2,3.1c-0.1,0.2-0.1,0.3-0.1,0.5c-0.2,0.8-0.4,1.5-0.7,2.3c-0.5,0.9-1,1.7-1.6,2.4
		c-0.6,0.5-1.1,0.9-1.7,1.4c-0.1,0.1-0.2,0.1-0.2,0.2c-0.8,0.4-1.6,0.7-2.4,1l0,0c-1.2,0.1-1.2,0.1-1.2,1.3c0,0.4,0,0.8,0,1.1
		c0,0.6,0,1.2,0,1.8c0,0.6,0,1.2,0,1.8c0,0.6,0,1.2,0,1.8c0,0.6,0,1.2,0,1.8c0,0.6,0,1.2,0,1.8c0,0.6,0,1.3,0,1.9
		c0,1.6-0.3,1.3,1.3,1.3c0.9,0.1,1.8,0.1,2.7,0c0.3,0.1,0.7,0.1,1,0c0.9,0.1,1.7,0.1,2.6,0c0.3,0.1,0.7,0.1,1,0
		c0.9,0.1,1.7,0.1,2.6,0c0.3,0.1,0.7,0.1,1,0c0.9,0.1,1.8,0.1,2.7,0c0.3,0.1,0.6,0.1,0.9,0c0.9,0.1,1.8,0.1,2.7,0
		c0.3,0.1,0.6,0.1,0.9,0c0.9,0.1,1.8,0.1,2.7,0c0.3,0.1,0.7,0.1,1,0c0.9,0.1,1.7,0.1,2.6,0c0.3,0.1,0.7,0.1,1,0
		c1,0.1,1.9-0.2,2.7-0.9c0,0,0.1-0.1,0.1-0.1c0.7-0.6,1.1-1.3,1.2-2.2c0.1-0.6,0.1-1.3,0-1.9c0-0.5,0-1,0-1.5c0.1-0.7,0.1-1.4,0-2
		c0.2-0.6-0.1-0.9-0.7-0.8c-0.3,0-0.6,0-0.9,0c-0.2,0-0.4,0-0.6,0c-0.3,0-0.6,0-1,0c-0.8-0.1-1.6-0.4-2.3-0.9l0,0l-0.1,0
		c-0.5-0.5-1-1.2-1.2-1.9c0-0.1,0-0.3-0.1-0.4c0-0.3,0-0.6,0-0.9c0-0.3,0-0.6,0-1c0-0.5,0.2-1-0.1-1.4c-0.2-0.3-0.7-0.2-1.1-0.3
		c-2.5-0.8-4.1-2.5-5-4.9c-0.1-0.4-0.2-0.9-0.3-1.3c-0.1-0.4-0.1-0.9-0.1-1.3c0-0.2,0-0.4,0-0.6c0.2-0.8,0.4-1.5,0.7-2.3
		c0.5-0.8,1-1.5,1.6-2.2c0.6-0.5,1.2-0.9,1.8-1.2c0.2,0,0.4-0.1,0.6-0.3c0.4-0.1,0.8-0.3,1.3-0.3c0.6-0.1,0.8-0.3,0.6-0.9
		c0.1-1.1-0.1-2.2,0.3-3.2c0,0,0,0,0,0c0,0,0,0,0-0.1c0-0.1,0.1-0.1,0.1-0.2c0.1-0.3,0.3-0.5,0.5-0.7c0.3-0.4,0.7-0.7,1.1-1
		c0.1-0.1,0.2-0.1,0.3-0.2c0.1,0,0.2-0.1,0.4-0.1c0.4-0.1,0.8-0.2,1.2-0.2c0.5,0,1,0,1.5-0.1c0.4,0.1,0.8,0.1,1.2,0
		C106.4,61,106.4,60.7,106.4,60.3z"/>
</g>
</svg>
