<?xml version="1.0" encoding="utf-8"?>
<!-- Generator: Adobe Illustrator 22.1.0, SVG Export Plug-In . SVG Version: 6.00 Build 0)  -->
<svg version="1.1" id="Calque_1" xmlns="http://www.w3.org/2000/svg" xmlns:xlink="http://www.w3.org/1999/xlink" x="0px" y="0px"
	 viewBox="0 0 141.7 141.7" style="enable-background:new 0 0 141.7 141.7;" xml:space="preserve">
<g>
	<path d="M100,76.6c-0.2-1.8-0.6-3.5-1.3-5.2c-2.2-5.7-6.5-9.3-12-11.6c-2.8-1.1-5.6-1.8-8.6-1.3c-0.3,0-0.6,0.2-0.8-0.2
		c2.5-1.1,3.6-1.8,4.7-3.2c2.1-2.8,2.7-5.9,1.5-9.3c-0.2-0.6-0.2-0.9,0.4-1.1c0.5-0.2,0.8-0.6,0.6-1.2c-0.1-0.4-0.4-0.7-0.9-0.7
		c-0.3,0-0.5,0.1-0.8,0.2c-0.4,0.3-0.7,0.2-1.1-0.2c-0.5-0.6-1-1.2-1.7-1.5c-0.2-0.1-0.5-0.3-0.3-0.5c0.3-0.4,0.4-0.9,0.7-1.2
		c0.2-0.2,0.5,0.2,0.8,0.3c0.4,0.2,0.8,0.1,1-0.3c0.2-0.4,0.1-0.8-0.3-1c-0.2-0.1-0.4-0.2-0.7-0.3c-1.1-0.6-2.2-0.9-3.2-1.7
		c-0.3,0-0.5,0-0.8,0c-0.4,0.5-0.6,1.1,0.1,1.4c0.9,0.4,0.7,0.8,0.4,1.4c-0.1,0.1-0.1,0.3-0.2,0.4c-0.8-0.1-1.7-0.3-2.5-0.4
		c-0.6,0-1-0.1-1-0.8c-0.1-0.6-0.4-1.1-1.1-1c-0.6,0.1-0.9,0.6-0.8,1.4c0.1,0.5,0,0.7-0.6,0.9c-3,1-5,3-6.1,6
		c-0.4,1.1-0.6,2.2-0.6,3.4c-0.3-0.8-0.6-1.7-0.9-2.5c-0.4-0.9-1-1.5-2-1.7c-1.1-0.2-2.2-0.1-3.3-0.1c-1.9,0-2.3,0.3-2.8,2.1
		c-1.7,6.3-3.4,12.6-5.1,19c-1.8,6.5-3.6,13.1-5.4,19.6c-0.4,1.4-1,1.8-2.5,1.9c-1.9,0.2-3.7,0.1-5.6,0.1c-0.6,0-1.1,0.2-1.4,0.7
		c0,1.8,0,3.6,0,5.4c0.5,0.8,1.2,0.7,1.9,0.7c5.8,0,11.6,0,17.4,0c2.2,0,4.4,0.1,6.6,0c1.5,0,2.9,0.4,4.1,1.4
		c3.2,2.3,6.6,4.1,10.6,4.6c0.1,0,0.2,0,0.2,0.2c1,0,2.1,0,3.1,0c0.1,0,0.2,0,0.3,0c0.2,0,0.3,0,0.5,0c0.2,0,0.3,0,0.5,0
		c1.5-0.4,3.1-0.6,4.5-1.1c3.1-1.1,5.9-2.6,8.3-4.8c3.5-3.2,5.4-7.2,6.1-11.8c0-0.2-0.1-0.4,0.2-0.5c0-1.8,0-3.6,0-5.4
		C100,76.9,100,76.8,100,76.6z M92.1,69c0-0.5,0.1-1.4,0.2-2.3c0-0.3,0.1-0.5,0.3-0.6c0.4-0.1,0.4,0.2,0.5,0.4
		c1.2,1.9,2.5,3.8,3.7,5.7c0.1,0.2,0.3,0.4,0.1,0.6c-0.2,0.3-0.5,0.2-0.7,0.1c-0.8-0.3-1.7-0.6-2.5-1C92,71.2,92,71.2,92.1,69z
		 M81.1,61.1c0.2-0.3,0.4-0.5,0.9-0.5c2.7,0.4,5.2,1.2,7.4,2.8c0.7,0.5,0.9,1.1,1,1.9c0,0.9,0,1.9,0.1,2.8c0.2,1.5-0.3,2.7-1.5,3.7
		c-1,0.9-2.3,1.5-3.5,2.2c-0.4,0.2-0.9,0.1-1.3,0c-1.9-0.5-3.6-1.2-5.3-2.1c-0.9-0.5-1.1-1.4-1.5-2.1c-0.1-0.4-0.2-0.7-0.4-1.1
		c-0.4-1-0.4-1.9,0.2-2.9C78.4,64.3,79.8,62.7,81.1,61.1z M60.7,74.9c0.2-0.1,0.4,0,0.5,0.3c0.7,1,1.4,2.1,2.1,3.1
		c0.3,0.4,0.3,0.9,0,1.3c-0.9,1.2-1.7,2.3-2.6,3.5c-0.1,0-0.1,0-0.2-0.1c0-1.7,0-3.3,0-5c0-0.9,0-1.7,0-2.6
		C60.5,75.2,60.4,74.9,60.7,74.9z M62.4,72.9c-0.6-1.1-0.6-2.2,0.2-3.2c1.1-1.5,2.3-3,3.6-4.4c0.7-0.8,1.6-1.1,2.7-0.7
		c1.6,0.5,3.2,1.1,4.7,1.6c0.5,0.2,0.9,0.6,1.1,1.1c0.7,1.5,0.9,3.1,1.3,4.6c0.1,0.3,0,0.6-0.3,0.9c-1.2,1.5-2.4,3-3.6,4.5
		c-0.7,0.8-1.8,0.7-2.9,0.7c-0.8-0.1-1.7,0.3-2.7,0c-0.3-0.1-0.6-0.2-0.9-0.5C64.2,76.2,63.3,74.6,62.4,72.9z M73.6,78.8
		c1-1.4,2.2-2.7,3.5-4c1.1-0.7,2.2-0.7,3.4-0.1c0.8,0.4,1.6,0.8,2.5,1.2c0.6,0.3,0.9,0.8,0.9,1.5c0,0.9,0,1.9,0,2.8
		c0,2-1,3.3-2.9,3.7c-0.9,0.2-1.8,0.4-2.7,0.6c-0.8,0.2-1.4-0.1-1.9-0.7c-1-1.4-1.9-2.7-2.9-4.1C73.4,79.5,73.3,79.3,73.6,78.8z
		 M76.9,62.8c0.1,0.1,0.2,0.3,0.2,0.5C77.1,63.1,77,63,76.9,62.8z M78,60.5c0.2,0.3-0.1,0.6-0.2,0.8c-0.3,0.5-0.7,1-1,1.5
		c0,0,0,0,0,0c-0.2,0.2-0.3,0.4-0.5,0.5c-1,1.2-1.3,1.2-2.7,0.8c-1-0.3-1.8-0.8-2.8-1.1c-0.3-0.1-0.4-0.2-0.4-0.5
		c0-0.3,0.3-0.3,0.5-0.3c1.1-0.3,2.3-0.7,3.4-1c1-0.3,1.9-0.6,2.9-0.8C77.4,60.3,77.7,60.2,78,60.5z M66.4,46.6
		c0.2-0.6,0.4-0.7,1-0.4c0.3,0.2,0.6,0.3,0.9,0.5c0.4,0.2,0.5,0.1,0.7-0.3c0.2-0.3,0.1-0.5-0.2-0.6c-0.3-0.1-0.6-0.3-0.9-0.4
		c-0.8-0.2-0.6-0.6-0.3-1.2c2-3.1,6.2-4.1,9-3.2c0.3,0.1,0.6,0.2,0.9,0.2c0,0.7-0.4,1.1-0.7,1.7c-0.1,0.3-0.2,0.5,0.2,0.6
		c0.3,0.2,0.6,0.2,0.7-0.2c0-0.1,0.1-0.2,0.1-0.3c0.7-1.4,0.7-1.4,1.9-0.5c2.6,1.9,3.8,6.2,2.6,9.1c-0.2,0.4-0.3,0.5-0.7,0.3
		c-0.3-0.2-0.7-0.3-1-0.5c-0.3-0.2-0.6-0.3-0.8,0.2c-0.2,0.4,0,0.5,0.3,0.7c0.3,0.1,0.5,0.3,0.8,0.4c0.8,0.2,0.6,0.6,0.3,1.2
		c-1.2,1.8-3,2.8-5,3.4l0,0c-1.5,0.2-3,0.3-4.5-0.3c-0.4-0.2-0.4-0.3-0.2-0.6c0.2-0.4,0.3-0.7,0.5-1.1c0.2-0.3,0.2-0.5-0.2-0.7
		c-0.4-0.2-0.5-0.1-0.7,0.3c-0.1,0.2-0.2,0.3-0.2,0.5c-0.6,1.2-0.6,1.2-1.7,0.4C66.5,53.5,65.4,49.8,66.4,46.6z M66.1,54
		c2,3.2,5,4.7,8.7,4.7c0.1,0,0.2,0,0.3,0c-0.3,0.3-0.7,0.1-1,0.3c-2,0.5-3.9,1.2-5.6,2.2c-0.6,0.3-0.7,0.1-0.8-0.4
		c-0.6-2.3-1.3-4.7-1.9-7C66,53.7,66,53.9,66.1,54z M55.8,54.3c0.5-1.9,1.1-3.8,1.5-5.7c0.3-1.3,1-1.8,2.3-1.6
		c0.4,0,0.8,0.1,1.1,0.1c0.9-0.2,1.2,0.3,1.4,1.1c1,4,2.1,7.9,3.2,11.9c0.2,0.6,0.2,0.9-0.6,0.9c-3.3,0-6.6,0-9.9,0
		c-0.2,0-0.4,0-0.7,0C54.7,58.6,55.2,56.5,55.8,54.3z M50.7,73.1c0.8-3,1.6-6,2.4-8.9c0.2-0.7,0.6-1.1,1.3-1.1c3.6,0,7.2,0,10.8,0
		c0.1,0,0.1,0,0.3,0.1c-2,1.9-3.8,3.9-5.1,6.2c-0.7,1.2-1.2,2.5-1.6,3.8c-0.1,0.5-0.3,0.6-0.8,0.6c-2.3,0-4.6,0-6.9,0
		C50.7,73.7,50.6,73.6,50.7,73.1z M47,86.9c0.9-3.3,1.8-6.5,2.7-9.8c0.2-0.7,0.6-1.1,1.4-1.1c2,0,4,0,6,0c0.5,0,0.6,0.2,0.7,0.6
		c0.4,3.4,0.7,6.8,1.1,10.1c0.1,0.6,0,0.9-0.7,0.8c-1.8-0.1-3.6,0-5.4,0c0,0,0,0,0,0c-1.8,0-3.5,0-5.3,0
		C47.1,87.5,46.9,87.5,47,86.9z M45,92.3c-2.1,0-4.2,0-6.4,0c-0.5,0-0.8-0.1-0.7-0.7c0-1.9,0-1.9,1.9-1.9c6.2,0,12.5,0,18.7,0
		c2.2,0,2.7,0.3,3.4,2.6C56.3,92.3,50.6,92.3,45,92.3z M64.7,92c-0.5-0.9-1.2-1.6-1.7-2.5c-1.8-2.9-1.6-5.1,0.7-7.6
		c0.1-0.1,0.3-0.3,0.4-0.4c1.5-1.5,1.8-1.6,3.9-1.6c2.8,0,4.7,1.2,5.8,3.8c0.3,0.8,0.8,1.6,1.4,2.3c0.2,0.3,0.3,0.5,0.1,0.9
		c-0.5,1.4-1.1,2.7-1.6,4.1c-0.2,0.5-0.5,0.8-1,1c-1.6,0.5-3.1,0.9-4.7,1.4C67.1,93.7,65.5,93.4,64.7,92z M76,98.4
		c-2.3-0.8-4.5-1.6-6.8-2.4c-0.2-0.1-0.3-0.1-0.3-0.3c0-0.2,0.1-0.4,0.3-0.5c1.3-0.4,2.6-0.8,3.9-1.1c0.4-0.1,0.8,0.1,1,0.4
		c0.8,1.1,1.5,2.2,2.2,3.3c0.1,0.1,0.1,0.2,0.1,0.3C76.5,98.2,76.4,98.5,76,98.4z M88.6,95c-0.1,0.9-0.5,1.5-1.3,1.8
		c-2.2,0.8-4.4,1.6-6.8,1.7c-0.8-0.2-1.3-0.7-1.8-1.4c-0.8-1.2-1.7-2.3-2.5-3.5c-0.4-0.6-0.5-1.2-0.4-1.9c0.3-1.4,1-2.8,1.5-4.1
		c0.2-0.6,0.8-0.7,1.3-0.9c0.8-0.3,1.7-0.3,2.5-0.8c2.4-1,4.5-0.2,6.3,1.4c0.8,0.7,1.3,1.5,1.3,2.5C88.8,91.6,88.8,93.3,88.6,95z
		 M95.9,88.6c-1.4,1.8-2.9,3.6-4.3,5.4c-0.1,0.2-0.3,0.4-0.6,0.3c-0.4-0.1-0.3-0.4-0.3-0.7c0-0.5,0.1-1,0.1-1.5c0,0,0,0,0,0
		c0.1-0.7,0.1-1.5,0.2-2.2c0-0.6,0.3-0.9,0.8-1c1.2-0.3,2.5-0.7,3.7-1c0.2-0.1,0.5-0.1,0.7,0.2C96.3,88.3,96.1,88.5,95.9,88.6z
		 M97.9,77.4c0,0.5,0,0.9,0,1.4c-0.1,1.7-0.2,3.4-0.4,5.1c-0.1,0.8-0.9,1.6-1.9,1.8c-0.8,0.2-1.5,0.4-2.3,0.7
		c-2.4,0.9-5.7-0.3-7-2.5c-0.2-0.3-0.4-0.7-0.4-1.1c0-1.8-0.2-3.6,0.3-5.4c0.7-2.3,2.5-3.5,4.7-4.1c0.3-0.1,0.6,0,0.9,0.1
		c1.6,0.6,3.2,1.2,4.8,1.9C97.8,75.7,97.9,76.1,97.9,77.4z"/>
	<path d="M77.1,52.9c0-0.1,0-0.2,0-0.3c0-0.1-0.1-0.1-0.2-0.2c-0.5,0.3-1.1,0.7-1.7,0.1c-0.3-0.3-0.4-0.6-0.4-1
		c0.1-0.6,1.5-1.7,2.1-1.7c1.1,0.6,1.3,1.3,0.4,2.2c-0.1,0.1-0.3,0.3-0.4,0.4c0.1,0,0.1,0.1,0.2,0.2C77.1,52.7,77.1,52.8,77.1,52.9
		c1.6-1.1,2.2-2.8,2-4.7c-0.3-1.9-1.4-3-3.1-3.7c-0.2,0-0.4,0-0.6-0.1c-2.2-0.6-4.1,0.3-5.1,2c-1.2,1.9-0.9,4.4,0.7,6
		C72.5,54.1,74.9,54.3,77.1,52.9z M74.3,52.7c-0.3,0.4-0.6,0.8-1.2,0.4c-0.4-0.3-0.9-0.4-1.3-0.6c-0.6-0.4-0.3-0.9-0.3-1.3
		c0.1-0.4,0.5-0.5,1-0.6c0.6,0.2,1.3,0.5,1.9,0.9C74.7,51.9,74.6,52.4,74.3,52.7z M76,46.4c0.2,0,0.4,0,0.6-0.1
		c0.9-0.4,1.3,0.1,1.7,0.9c0.6,1.1-0.2,2-1.3,2.2v0c-1.1-0.2-1.1-1.2-1.5-1.9C75.1,47.1,75.7,46.8,76,46.4z M74.2,44.8
		c0.4,0,1.2,1,1.2,1.5c0,0.8-0.9,1.3-2.2,1.3c-0.7,0-1-0.4-1-1.2C72.1,45.3,72.8,44.8,74.2,44.8z M70.1,49.1c0-1.4,0.2-1.6,1.2-1.8
		c0.5-0.1,0.8,0.1,1,0.5c0.3,0.4,0,2.1-0.3,2.4c-0.3,0.3-0.7,0.4-1.1,0.2C70.2,50.1,70,49.7,70.1,49.1z"/>
	<path d="M68.3,49.5c0-0.4-0.3-0.2-0.6-0.3c-0.1,0-0.2,0-0.3,0c-0.3,0.1-0.8-0.2-0.7,0.4c0,0.5,0.5,0.2,0.7,0.3c0.1,0,0.3,0,0.4,0
		C68,49.8,68.3,49.9,68.3,49.5z"/>
	<path d="M71,44C71.1,43.9,71.1,43.9,71,44c0.1-0.3-0.6-1.3-0.9-1.4c-0.1,0.1-0.3,0.2-0.3,0.3c0.1,0.5,0.4,0.8,0.8,1.2
		C70.8,44.2,70.9,44.1,71,44z"/>
	<path d="M73.5,42.1c0,0.2,0,0.3,0,0.5c0,0.2,0,0.5,0.3,0.5c0.4,0,0.3-0.3,0.3-0.5c0-0.1,0-0.3,0-0.4c-0.1-0.2,0.1-0.7-0.4-0.7
		C73.3,41.4,73.6,41.9,73.5,42.1z"/>
	<path d="M69.2,52.5c-0.5-0.1-0.8,0.2-1.1,0.4c-0.2,0.1-0.2,0.3-0.1,0.5c0.2,0.2,0.3,0.1,0.5,0C68.8,53.2,69,52.8,69.2,52.5z"/>
	<path d="M77.9,53.9c-0.2,0.1-0.3,0.2-0.3,0.3c0.1,0.5,0.4,0.8,0.7,1.2c0.1,0.1,0.2,0,0.2-0.1c0.2-0.2,0.1-0.4,0-0.6
		C78.3,54.4,78.1,54.1,77.9,53.9z"/>
	<path d="M79.7,45.7c0.3-0.2,0.5-0.5,0.7-0.9c-0.5-0.2-0.8,0.2-1.1,0.4c-0.2,0.1-0.1,0.3,0,0.4C79.4,45.8,79.6,45.8,79.7,45.7z"/>
	<path d="M81.1,48.8c0.1,0,0.2,0,0.2-0.1c0.3,0,0.6,0.1,0.6-0.3c0-0.4-0.4-0.2-0.6-0.2c-0.1,0-0.2,0-0.2,0c-0.3,0.1-0.7-0.2-0.7,0.3
		C80.4,49.2,80.9,48.8,81.1,48.8z"/>
	<path d="M74.8,55.1c-0.5,0.3-0.5,1,0,1.5C75.3,56.3,75.3,55.4,74.8,55.1z"/>
</g>
</svg>
