<svg version="1.1" xmlns="http://www.w3.org/2000/svg" xmlns:xlink="http://www.w3.org/1999/xlink" width="50px" height="50px" viewBox="0,0,256,256"><g fill="#b0d762" fill-rule="nonzero" stroke="none" stroke-width="1" stroke-linecap="butt" stroke-linejoin="miter" stroke-miterlimit="10" stroke-dasharray="" stroke-dashoffset="0" font-family="none" font-weight="none" font-size="none" text-anchor="none" style="mix-blend-mode: normal"><g transform="scale(5.12,5.12)"><path d="M40.45313,1.04688c-1.652,0 -3,1.344 -3,3v1.63672c-3.59,-2.321 -7.85912,-3.68359 -12.45312,-3.68359c-12.703,0 -23,10.297 -23,23c0,12.703 10.297,23 23,23c12.703,0 23,-10.297 23,-23c0,-5.145 -1.69087,-9.88675 -4.54687,-13.71875v-7.23437c0,-1.656 -1.344,-3 -3,-3zM40.45313,3.04688c0.555,0 1,0.445 1,1v9.17969h-9.17969c-0.555,0 -1,-0.449 -1,-1c0,-0.551 0.445,-1 1,-1h5.84766c-3.508,-3.368 -8.18709,-5.27344 -13.12109,-5.27344c-10.477,0 -19,8.523 -19,19c0,10.48 8.523,19 19,19c10.477,0 19,-8.523 19,-19c0,-2.996 -0.71912,-6.01647 -2.07812,-8.73047l1.78906,-0.89844c1.5,2.992 2.28906,6.32391 2.28906,9.62891c0,11.581 -9.422,21 -21,21c-11.578,0 -21,-9.418 -21,-21c0,-11.578 9.422,-21 21,-21c5.426,0 10.58613,2.08625 14.45313,5.78125v-5.6875c0,-0.555 0.449,-1 1,-1zM23,10h2v14.28125c0.598,0.348 1,0.97975 1,1.71875c0,1.105 -0.895,2 -2,2c-0.172,0 -0.34,-0.0205 -0.5,-0.0625l-6.78125,6.78125l-1.4375,-1.4375l6.78125,-6.78125c-0.042,-0.16 -0.0625,-0.328 -0.0625,-0.5c0,-0.738 0.402,-1.37075 1,-1.71875z"></path></g></g></svg>